<?xml version="1.0" standalone="no"?><!DOCTYPE svg PUBLIC "-//W3C//DTD SVG 1.1//EN" "http://www.w3.org/Graphics/SVG/1.1/DTD/svg11.dtd"><svg t="1667328535580" class="icon" viewBox="0 0 1024 1024" version="1.1" xmlns="http://www.w3.org/2000/svg" p-id="1595" xmlns:xlink="http://www.w3.org/1999/xlink" width="200" height="200"><path d="M512 896c-12.8 0-21.333333-8.533333-21.333333-21.333333 0-61.866667-55.466667-85.333333-106.666667-85.333334H106.666667c-12.8 0-21.333333-8.533333-21.333334-21.333333V149.333333c0-12.8 8.533333-21.333333 21.333334-21.333333h234.666666c106.666667 0 192 85.333333 192 192v554.666667c0 12.8-8.533333 21.333333-21.333333 21.333333zM128 746.666667h256c44.8 0 81.066667 12.8 106.666667 34.133333V320c0-83.2-66.133333-149.333333-149.333334-149.333333H128v576z" p-id="1596" fill="#8a8a8a"></path><path d="M512 896c-12.8 0-21.333333-8.533333-21.333333-21.333333V320c0-106.666667 85.333333-192 192-192h234.666666c12.8 0 21.333333 8.533333 21.333334 21.333333v618.666667c0 12.8-8.533333 21.333333-21.333334 21.333333H640c-51.2 0-106.666667 23.466667-106.666667 85.333334 0 12.8-8.533333 21.333333-21.333333 21.333333z m170.666667-725.333333c-83.2 0-149.333333 66.133333-149.333334 149.333333v460.8c25.6-21.333333 61.866667-34.133333 106.666667-34.133333h256V170.666667H682.666667z" p-id="1597" fill="#8a8a8a"></path></svg>