<?xml version="1.0" standalone="no"?><!DOCTYPE svg PUBLIC "-//W3C//DTD SVG 1.1//EN" "http://www.w3.org/Graphics/SVG/1.1/DTD/svg11.dtd"><svg t="1666638024527" class="icon" viewBox="0 0 1024 1024" version="1.1" xmlns="http://www.w3.org/2000/svg" p-id="1173" data-spm-anchor-id="a313x.7781069.0.i8" xmlns:xlink="http://www.w3.org/1999/xlink" width="200" height="200"><path d="M53.333333 490.666667A437.930667 437.930667 0 0 1 490.666667 53.333333a32.213333 32.213333 0 0 1 32 32 32.213333 32.213333 0 0 1-32 32 373.333333 373.333333 0 1 0 373.333333 373.333334 32 32 0 0 1 64 0 437.333333 437.333333 0 0 1-874.666667 0z" fill="#F28585" p-id="1174" data-spm-anchor-id="a313x.7781069.0.i21" class=""></path><path d="M916.053333 961.28l-85.333333-85.333333a32 32 0 0 1 45.269333-45.226667l85.333334 85.333333a32.170667 32.170667 0 0 1 0 45.226667 31.914667 31.914667 0 0 1-45.226667 0zM746.624 407.04a205.354667 205.354667 0 0 1-158.677333-135.68 126.762667 126.762667 0 0 1 72.533333-161.706667 101.802667 101.802667 0 0 1 31.786667-5.12 100.224 100.224 0 0 1 53.973333 15.786667 99.242667 99.242667 0 0 1 54.144-15.786667 106.922667 106.922667 0 0 1 32.042667 5.12 111.530667 111.530667 0 0 1 69.717333 66.773334 142.250667 142.250667 0 0 1 2.816 94.933333 207.061333 207.061333 0 0 1-158.336 135.68z m-54.784-238.08a41.301333 41.301333 0 0 0-11.733333 1.706667 64.384 64.384 0 0 0-31.146667 81.493333 149.333333 149.333333 0 0 0 98.133333 91.306667 153.6 153.6 0 0 0 96.853334-90.88 64.341333 64.341333 0 0 0-31.146667-81.536 41.344 41.344 0 0 0-12.501333-1.92 32.128 32.128 0 0 0-27.221334 12.8 32.384 32.384 0 0 1-25.984 14.506666h-1.066666a32.213333 32.213333 0 0 1-25.344-13.269333 34.346667 34.346667 0 0 0-28.842667-14.208z" fill="#F28585" p-id="1175" data-spm-anchor-id="a313x.7781069.0.i9" class=""></path></svg>